<svg width="158" height="120" viewBox="0 0 158 120" fill="none" xmlns="http://www.w3.org/2000/svg">
<g clip-path="url(#clip0_102_11)">
<path d="M134.265 45H130.316L103.468 13.1297C101.988 11.3732 100.111 9.95533 97.9755 8.98086C95.8403 8.00638 93.5016 7.50028 91.1326 7.5H38.3372C31.8781 7.5 26.0707 11.2336 23.6717 16.9289L11.8469 45.5297C5.04482 47.2031 0 53.018 0 60V86.25C0 88.3219 1.76717 90 3.94898 90H15.7959C15.7959 102.427 26.4039 112.5 39.4898 112.5C52.5757 112.5 63.1837 102.427 63.1837 90H94.7755C94.7755 102.427 105.383 112.5 118.469 112.5C131.555 112.5 142.163 102.427 142.163 90H154.01C156.192 90 157.959 88.3219 157.959 86.25V67.5C157.959 55.0734 147.351 45 134.265 45ZM39.4898 101.25C32.9567 101.25 27.6429 96.2039 27.6429 90C27.6429 83.7961 32.9567 78.75 39.4898 78.75C46.0229 78.75 51.3367 83.7961 51.3367 90C51.3367 96.2039 46.0229 101.25 39.4898 101.25ZM57.2602 45H28.8596L38.3372 22.5H57.2602V45ZM69.1071 45V22.5H91.1326L110.088 45H69.1071ZM118.469 101.25C111.936 101.25 106.622 96.2039 106.622 90C106.622 83.7961 111.936 78.75 118.469 78.75C125.002 78.75 130.316 83.7961 130.316 90C130.316 96.2039 125.002 101.25 118.469 101.25Z" fill="#FC570C"/>
</g>
<defs>
<clipPath id="clip0_102_11">
<rect width="157.959" height="120" fill="white"/>
</clipPath>
</defs>
</svg>
