<svg width="50" height="30" viewBox="0 0 50 30" fill="none" xmlns="http://www.w3.org/2000/svg">
<path d="M40.0643 9.99786C38.9005 9.99005 37.7913 10.1775 36.7525 10.5368L34.1827 6.24866H40.6188C41.6577 6.24866 42.4934 5.4129 42.4934 4.37406V1.8746C42.4934 0.835759 41.6577 0 40.6188 0H37.0805C36.5494 0 36.0417 0.226514 35.6902 0.617056L32.7611 3.87417L30.9803 0.906056C30.6366 0.343676 30.0274 0 29.3712 0H23.1226C22.4352 0 21.8728 0.56238 21.8728 1.24973V2.49947C21.8728 3.18682 22.4352 3.7492 23.1226 3.7492H28.309L29.8086 6.24866H17.8034C16.4209 4.44436 14.2963 3.12433 10.0004 3.12433H5.66538C4.61092 3.12433 3.72829 3.98352 3.75173 5.03798C3.76735 6.05339 4.60311 6.87353 5.62633 6.87353H10.0004C11.914 6.87353 13.0232 7.72491 13.734 8.81062L12.8513 10.4118C11.8359 10.1072 10.7502 9.96662 9.62547 10.0057C4.36878 10.1931 0.127502 14.4969 0.00252921 19.7614C-0.122444 25.393 4.40003 29.9936 10.0004 29.9936C14.6556 29.9936 18.5689 26.8068 19.6858 22.4952H26.2625C27.3326 22.4952 28.184 21.6048 28.1371 20.5347C27.9731 16.8558 29.504 13.2159 32.5268 10.7711L33.5032 12.3958C31.3474 14.247 29.9805 16.9964 30.0039 20.066C30.043 25.5024 34.4717 29.9467 39.9081 29.9936C45.5006 30.0483 50.0465 25.5024 49.9996 19.9098C49.945 14.4735 45.5006 10.0369 40.0643 9.99786ZM10.0004 26.2444C6.55581 26.2444 3.75173 23.4403 3.75173 19.9957C3.75173 16.5511 6.55581 13.7471 10.0004 13.7471C10.3284 13.7471 10.6565 13.7705 10.9767 13.8252L7.73525 19.7145C7.0479 20.9643 7.95395 22.4952 9.37552 22.4952H15.7257C14.7572 24.6978 12.5545 26.2444 10.0004 26.2444ZM46.2348 20.3394C46.063 23.5106 43.501 26.0725 40.3377 26.2366C36.7369 26.4318 33.7453 23.5575 33.7453 19.9957C33.7453 18.3242 34.4014 16.8089 35.4715 15.692L39.33 22.1281C39.6815 22.7217 40.4548 22.9092 41.0484 22.5577L42.1185 21.9172C42.7121 21.5657 42.8996 20.7924 42.5481 20.1988L38.752 13.8798C39.1582 13.7939 39.5722 13.7549 39.994 13.7549C43.5557 13.7471 46.4223 16.7386 46.2348 20.3394Z" fill="#FC570C"/>
</svg>
