<svg width="50" height="44" viewBox="0 0 50 44" fill="none" xmlns="http://www.w3.org/2000/svg">
<path d="M42.875 10C42.4387 9.24431 41.8123 8.61595 41.0579 8.17737C40.3036 7.73879 39.4476 7.50527 38.575 7.5H32.5V2.5C32.5 1.83696 32.2366 1.20107 31.7678 0.732234C31.2989 0.263393 30.663 0 30 0H5C3.67392 0 2.40215 0.526784 1.46447 1.46447C0.526784 2.40215 0 3.67392 0 5V30C0.000899355 30.8768 0.232357 31.738 0.671154 32.4971C1.10995 33.2562 1.74066 33.8866 2.5 34.325C2.41049 36.6456 3.24652 38.9068 4.82417 40.611C6.40182 42.3153 8.59186 43.323 10.9125 43.4125C13.2331 43.502 15.4943 42.666 17.1985 41.0883C18.9028 39.5107 19.9105 37.3206 20 35H27.75C28.0265 37.0918 29.0536 39.0118 30.6403 40.4025C32.227 41.7933 34.2651 42.5601 36.375 42.5601C38.4849 42.5601 40.523 41.7933 42.1097 40.4025C43.6964 39.0118 44.7235 37.0918 45 35C46.3261 35 47.5979 34.4732 48.5355 33.5355C49.4732 32.5979 50 31.3261 50 30V22.5C49.9961 22.0439 49.8756 21.5964 49.65 21.2L42.875 10ZM32.5 12.5H38.575L43.075 20H32.5V12.5ZM11.25 37.5C10.5083 37.5 9.7833 37.2801 9.16661 36.868C8.54993 36.456 8.06928 35.8703 7.78545 35.1851C7.50162 34.4998 7.42736 33.7458 7.57205 33.0184C7.71675 32.291 8.0739 31.6228 8.59835 31.0984C9.1228 30.5739 9.79098 30.2167 10.5184 30.0721C11.2458 29.9274 11.9998 30.0016 12.6851 30.2855C13.3703 30.5693 13.956 31.0499 14.368 31.6666C14.7801 32.2833 15 33.0083 15 33.75C15 34.7446 14.6049 35.6984 13.9017 36.4016C13.1984 37.1049 12.2446 37.5 11.25 37.5ZM36.25 37.5C35.5083 37.5 34.7833 37.2801 34.1666 36.868C33.5499 36.456 33.0693 35.8703 32.7854 35.1851C32.5016 34.4998 32.4274 33.7458 32.5721 33.0184C32.7168 32.291 33.0739 31.6228 33.5984 31.0984C34.1228 30.5739 34.791 30.2167 35.5184 30.0721C36.2458 29.9274 36.9998 30.0016 37.6851 30.2855C38.3703 30.5693 38.956 31.0499 39.368 31.6666C39.7801 32.2833 40 33.0083 40 33.75C40 34.7446 39.6049 35.6984 38.9016 36.4016C38.1984 37.1049 37.2446 37.5 36.25 37.5Z" fill="#FC570C"/>
</svg>
